<?xml version="1.0" standalone="no"?>
<!DOCTYPE svg PUBLIC "-//W3C//DTD SVG 20010904//EN"
 "http://www.w3.org/TR/2001/REC-SVG-20010904/DTD/svg10.dtd">
<svg version="1.0" xmlns="http://www.w3.org/2000/svg"
 width="1280.000000pt" height="720.000000pt" viewBox="0 0 1280.000000 720.000000"
 preserveAspectRatio="xMidYMid meet">

<g transform="translate(0.000000,720.000000) scale(0.100000,-0.100000)"
fill="#000000" stroke="none">
<path d="M5040 4690 l0 -1360 1360 0 1360 0 0 1360 0 1360 -1360 0 -1360 0 0
-1360z m2680 0 l0 -1320 -1320 0 -1320 0 0 1320 0 1320 1320 0 1320 0 0 -1320z"/>
<path d="M5110 4685 l0 -1285 1290 0 1290 0 0 1285 0 1285 -1290 0 -1290 0 0
-1285z m2540 0 l0 -1245 -1250 0 -1250 0 0 1245 0 1245 1250 0 1250 0 0 -1245z"/>
<path d="M5618 5413 c-2 -5 -3 -366 -3 -803 l1 -795 104 0 105 0 5 648 5 648
209 -518 c115 -285 234 -578 264 -651 l55 -133 44 3 45 3 261 649 262 649 3
-651 2 -652 105 0 105 0 0 805 0 806 -147 -3 -148 -3 -242 -600 c-133 -330
-244 -604 -245 -608 -2 -5 -98 225 -213 510 -115 285 -226 559 -246 608 l-38
90 -145 3 c-79 1 -146 -1 -148 -5z"/>
<path d="M5900 2529 c-172 -30 -322 -162 -382 -336 -33 -98 -33 -278 0 -376
59 -170 186 -288 357 -332 270 -69 552 96 621 365 20 78 22 215 5 290 -43 183
-184 333 -356 379 -60 16 -183 21 -245 10z m263 -152 c140 -69 216 -220 204
-406 -11 -184 -95 -306 -249 -357 -68 -22 -205 -16 -270 13 -153 69 -235 247
-207 449 22 163 108 275 243 320 25 8 76 12 132 11 75 -2 100 -7 147 -30z"/>
<path d="M7074 2525 c-91 -20 -195 -76 -264 -144 -126 -123 -179 -323 -135
-509 45 -190 197 -342 387 -387 174 -41 339 4 460 125 32 32 58 62 58 67 0 5
-24 22 -53 37 l-53 29 -45 -44 c-24 -25 -66 -56 -94 -69 -43 -22 -64 -25 -150
-25 -89 0 -107 3 -162 29 -158 73 -240 243 -212 440 19 138 91 241 207 298 62
31 74 33 167 33 119 0 168 -19 241 -93 l45 -47 55 30 c30 16 54 33 54 38 0 5
-27 35 -59 68 -118 118 -276 161 -447 124z"/>
<path d="M8970 2529 c-172 -30 -322 -162 -382 -336 -33 -98 -33 -278 0 -376
59 -170 186 -288 357 -332 270 -69 552 96 621 365 20 78 22 215 5 290 -43 182
-173 322 -350 376 -59 19 -184 25 -251 13z m263 -152 c140 -69 216 -220 204
-406 -11 -184 -95 -306 -249 -357 -68 -22 -205 -16 -270 13 -153 69 -235 247
-207 449 22 163 108 275 243 320 25 8 76 12 132 11 75 -2 100 -7 147 -30z"/>
<path d="M2260 2005 l0 -515 70 0 70 0 2 411 3 411 165 -409 165 -408 31 -3
31 -3 164 408 164 407 3 -407 2 -407 70 0 70 0 0 515 0 516 -96 -3 -96 -3
-152 -377 c-84 -208 -155 -380 -157 -383 -3 -2 -75 168 -160 378 l-154 382
-97 3 -98 3 0 -516z"/>
<path d="M3400 2513 c1 -5 90 -138 200 -298 l199 -290 1 -217 0 -218 70 0 70
0 0 221 0 221 182 266 c99 147 190 279 200 295 l19 27 -80 0 -81 0 -157 -235
-156 -235 -156 235 -156 234 -77 1 c-43 0 -78 -3 -78 -7z"/>
<path d="M4460 2005 l0 -515 208 0 c231 0 298 9 387 50 86 39 139 81 190 151
104 141 127 365 56 532 -63 146 -205 256 -375 288 -27 5 -143 9 -257 9 l-209
0 0 -515z m409 385 c220 -29 343 -184 328 -415 -11 -173 -101 -295 -252 -341
-30 -9 -109 -18 -197 -21 l-148 -6 0 397 0 396 98 0 c53 0 130 -5 171 -10z"/>
<path d="M7660 2460 l0 -60 160 0 160 0 0 -455 0 -455 70 0 70 0 0 455 0 455
165 0 165 0 0 60 0 60 -395 0 -395 0 0 -60z"/>
<path d="M9770 2006 l0 -516 70 0 70 0 0 200 0 200 99 0 99 0 128 -200 128
-200 78 0 c43 0 78 2 78 5 0 3 -58 93 -130 200 -71 107 -130 198 -130 203 0 4
19 13 43 19 89 24 173 106 197 192 15 54 12 161 -6 214 -21 63 -83 130 -152
164 l-57 28 -257 3 -258 3 0 -515z m501 366 c103 -50 131 -193 57 -288 -42
-52 -87 -64 -260 -64 l-158 0 0 191 0 192 158 -5 c136 -4 165 -8 203 -26z"/>
<path d="M5740 1323 c-2755 -11 -3637 -17 -3642 -26 -5 -9 26 -13 120 -15 171
-5 6957 16 7820 24 570 5 682 9 682 20 0 17 140 17 -4980 -3z"/>
</g>
</svg>
